OpenSim_Sub03_CSStiffKnee_GRF.mot
version=1
nRows=23
nColumns=19
inDegrees=no
endheader
time	lFx	lFy	lFz	lCOPx	lCOPy	lCOPz	rFx	rFy	rFz	rCOPx	rCOPy	rCOPz	lMx	lMy	lMz	rMx	rMy	rMz
18.18000000	9.38865137	-0.76490166	-0.95551408	0.00000078	0	-0.00000073	13.70282080	695.53078387	-73.64862989	0.74878514	0	-0.35172390	0	-0.00000755	0	0	-4.72968173	0
18.19000000	9.29620063	-0.66265087	-1.02954086	0.00000034	0	-0.00000026	14.39088576	703.65794087	-73.77487667	0.74274948	0	-0.35166517	0	-0.00000299	0	0	-4.23933440	0.00000000
18.20000000	9.25777024	-0.57290244	-1.13225170	0.00000003	0	0.00000001	14.71056231	711.68778028	-74.05124957	0.73675506	0	-0.35159223	0	-0.00000022	0	0	-3.74111049	-0.00000000
18.21000000	9.21039465	-0.54355874	-1.23186301	-0.00000012	0	0.00000012	14.91927365	719.52670102	-74.62143697	0.73036593	0	-0.35145098	0	0.00000083	0	0	-3.22660316	0
18.22000000	9.11410895	-0.51758924	-1.29445362	-0.00000014	0	0.00000011	15.21582062	727.25580989	-75.55478943	0.72354904	0	-0.35126985	0	0.00000062	0	0	-2.67162143	-0.00000000
18.23000000	8.99982604	-0.46909488	-1.31756984	0.00000004	0	-0.00000002	15.47912295	734.54190069	-76.78028067	0.71649681	0	-0.35109315	0	-0.00000087	0	0	-2.09893363	0.00000000
18.24000000	8.89871687	-0.37037065	-1.32832110	0.00000054	0	-0.00000037	15.59037283	740.46975485	-77.81639809	0.70956177	0	-0.35094438	0	-0.00000398	0	0	-1.55121109	0
18.25000000	8.82208527	-0.21580153	-1.33971245	0.00000143	0	-0.00000100	15.67412050	743.79710955	-78.13981065	0.70284951	0	-0.35087289	0	-0.00000813	0	0	-0.96439876	0
18.26000000	8.77092125	-0.08303336	-1.36935351	0.00000229	0	-0.00000162	16.21451766	743.96299099	-77.33278409	0.69633931	0	-0.35090247	0	-0.00000947	0	0	-0.27741828	0
18.27000000	8.72801082	0.00806017	-1.39944429	0.00000159	0	-0.00000118	17.56502155	741.50599480	-75.31573804	0.68987320	0	-0.35101128	0	0.00000194	0	0	0.49957857	-0.00000000
18.28000000	8.69716819	0.02643302	-1.40837061	-0.00000382	0	0.00000253	19.87157242	737.43299991	-72.50208829	0.68332918	0	-0.35117402	0	0.00004181	0	0	1.38930246	-0.00000000
18.29000000	8.64480662	-0.01657652	-1.37800696	-0.00001772	0	0.00001221	23.08440437	732.62015544	-69.46886072	0.67661760	0	-0.35132780	0	0.00012047	0	0	2.36268820	0
18.30000000	8.57700182	-0.11267253	-1.33622283	-0.00003971	0	0.00002776	26.91190564	727.46777634	-66.86076287	0.66987505	0	-0.35141139	0	0.00020994	0	0	3.25592498	0
18.31000000	8.54139055	-0.18971978	-1.30826590	-0.00005429	0	0.00003861	30.77067171	721.75238682	-65.29118459	0.66344718	0	-0.35138996	0	0.00018537	0	0	3.99859057	0
18.32000000	8.55091282	-0.21006717	-1.31580691	-0.00001548	0	0.00001285	34.32461915	714.86054756	-65.02155751	0.65767447	0	-0.35123410	0	-0.00022907	0	0	4.61167837	0
18.33000000	8.56799575	-0.19694068	-1.35795869	0.00015850	0	-0.00010708	37.59179145	706.28687466	-65.84637278	0.65261002	0	-0.35094547	0	-0.00140357	0	0	5.08567182	0.00000000
18.34000000	8.57399481	-0.17959685	-1.37757683	0.00054352	0	-0.00037629	40.90722393	696.24602758	-67.20359867	0.64801138	0	-0.35059166	0	-0.00342472	0	0	5.47867243	0
18.35000000	8.60864810	-0.14958044	-1.37341305	0.00106155	0	-0.00074497	44.35456067	685.91642571	-68.49978902	0.64379671	0	-0.35021236	0	-0.00515360	0	0	5.85680059	0
18.36000000	8.71284116	-0.14426414	-1.36771454	0.00118617	0	-0.00085194	47.54771250	676.52213709	-69.48424195	0.64014607	0	-0.34979854	0	-0.00277800	0	0	6.20476674	0
18.37000000	8.90174008	-0.31362713	-1.38287048	-0.00039693	0	0.00021888	49.99638171	668.60257160	-70.17419768	0.63719265	0	-0.34932536	0	0.01104430	0	0	6.43124238	-0.00000000
18.38000000	9.12578104	-0.97969057	-1.46895650	-0.00571197	0	0.00389999	51.43523038	662.30560735	-70.87162765	0.63504818	0	-0.34877807	0	0.04431684	0	0	6.53316477	0.00000000
18.39000000	9.23301384	-2.59329872	-1.60691985	-0.01596700	0	0.01109957	51.94000439	657.61760497	-71.85665961	0.63363399	0	-0.34816727	0	0.09368048	0	0	6.54818327	0.00000000
18.40000000	8.87423415	-5.16608928	-1.65465637	-0.02718177	0	0.01916375	51.80096265	654.40869640	-73.09396116	0.63271922	0	-0.34751789	0	0.11851152	0	0	6.43826606	0.00000000
